Coordinates
version=1
nRows=11
nColumns=40
inDegrees=yes

Units are S.I. units (second, meters, Newtons, ...)
If the header above contains a line with 'inDegrees', this indicates whether rotational values are in degrees (yes) or radians (no).

endheader
time	pelvis_tilt	pelvis_list	pelvis_rotation	pelvis_tx	pelvis_ty	pelvis_tz	hip_flexion_r	hip_adduction_r	hip_rotation_r	knee_angle_r	knee_angle_r_beta	ankle_angle_r	subtalar_angle_r	mtp_angle_r	hip_flexion_l	hip_adduction_l	hip_rotation_l	knee_angle_l	knee_angle_l_beta	ankle_angle_l	subtalar_angle_l	mtp_angle_l	lumbar_extension	lumbar_bending	lumbar_rotation	arm_flex_r	arm_add_r	arm_rot_r	elbow_flex_r	pro_sup_r	wrist_flex_r	wrist_dev_r	arm_flex_l	arm_add_l	arm_rot_l	elbow_flex_l	pro_sup_l	wrist_flex_l	wrist_dev_l
      3.59000000	    -26.43381230	      5.08723921	     -2.20279740	     -0.33156636	      0.72644870	     -0.91345587	     75.81064687	    -19.40272116	     -0.66432843	     81.93819024	      1.43009120	     30.51055703	      0.00000000	      0.00000000	     69.89125407	    -19.82086496	     -9.05715145	     78.99371030	      1.37870033	     30.03348100	      0.00000000	      0.00000000	    -22.82186795	     -7.71841706	      1.16856595	    -26.45512153	    -37.24702653	     13.45788454	     94.29503757	     44.94737018	      0.00000000	      0.00000000	    -25.23267000	    -39.65042021	      6.50134162	     76.77045064	     44.94737018	      0.00000000	      0.00000000
      3.59500000	    -25.47711793	      5.20036971	     -2.17328813	     -0.32686659	      0.73706208	     -0.91342414	     73.52332162	    -19.69070988	     -1.26097228	     80.42549504	      1.40368969	     29.93740948	      0.00000000	      0.00000000	     67.50429342	    -19.51603609	    -10.06300706	     77.00423194	      1.34397739	     29.38717088	      0.00000000	      0.00000000	    -22.19545978	     -7.81261267	      1.23926972	    -26.54759801	    -37.15082585	     13.45299323	     94.21370911	     44.94776210	      0.00000000	      0.00000000	    -25.38867099	    -39.56900076	      6.48491696	     76.76568886	     44.94776210	      0.00000000	      0.00000000
      3.60000000	    -24.56998213	      5.24990088	     -2.10545412	     -0.32205635	      0.74750787	     -0.91353391	     71.29696519	    -19.99324040	     -1.85236335	     78.71341036	      1.37380818	     29.05767510	      0.00000000	      0.00000000	     65.24693610	    -19.10936952	    -10.41025493	     75.39668157	      1.31592034	     28.15877116	      0.00000000	      0.00000000	    -21.92623327	     -7.93510431	      1.27952344	    -26.70874223	    -37.00177344	     13.44908893	     94.08573166	     44.94837444	      0.00000000	      0.00000000	    -25.61290170	    -39.46076165	      6.45797908	     76.75820410	     44.94837444	      0.00000000	      0.00000000
      3.60500000	    -23.68229064	      5.42157728	     -2.06557369	     -0.31731774	      0.75825470	     -0.91351882	     69.11643905	    -20.31617979	     -2.39894463	     76.99896324	      1.34388543	     28.18637469	      0.00000000	      0.00000000	     62.91534644	    -18.66616293	    -11.10082125	     73.53615668	      1.28344805	     27.17689012	      0.00000000	      0.00000000	    -21.31986649	     -8.01857810	      1.33221477	    -26.82232456	    -36.91528700	     13.44962281	     94.02021299	     44.94870671	      0.00000000	      0.00000000	    -25.77417033	    -39.38821130	      6.44478546	     76.75411817	     44.94870671	      0.00000000	      0.00000000
      3.61000000	    -22.91991334	      5.55073016	     -2.03960151	     -0.31275504	      0.76904784	     -0.91348199	     66.99846630	    -20.50071377	     -2.83882120	     75.15382087	      1.31168162	     27.28662007	      0.00000000	      0.00000000	     60.69585773	    -18.22431250	    -11.60839743	     71.43196320	      1.24672295	     26.08921798	      0.00000000	      0.00000000	    -20.81411134	     -8.08696626	      1.36961071	    -26.92321115	    -36.84923997	     13.45282756	     93.97374539	     44.94895207	      0.00000000	      0.00000000	    -25.90860590	    -39.34047234	      6.43325498	     76.75109060	     44.94895207	      0.00000000	      0.00000000
      3.61500000	    -21.50032044	      5.28959716	     -1.93787661	     -0.30724481	      0.78121429	     -0.91361499	     63.80689162	    -20.79029307	     -4.15790114	     73.14501212	      1.27662129	     26.18748180	      0.00000000	      0.00000000	     57.89356764	    -18.01911958	    -12.07784214	     69.55899487	      1.21403348	     24.67906143	      0.00000000	      0.00000000	    -21.51571677	     -7.83359932	      1.42858214	    -27.43966784	    -36.50567713	     13.45324243	     93.70133881	     44.95041775	      0.00000000	      0.00000000	    -26.55040195	    -39.14811166	      6.36721009	     76.73279966	     44.95041775	      0.00000000	      0.00000000
      3.62000000	    -20.46879708	      5.37985644	     -1.96316703	     -0.30218159	      0.79286245	     -0.91336444	     61.27756333	    -20.98207604	     -4.84410585	     71.13532048	      1.24154556	     24.84525717	      0.00000000	      0.00000000	     55.33381240	    -17.73460411	    -13.05186569	     67.25953391	      1.17390032	     23.45775818	      0.00000000	      0.00000000	    -20.72752293	     -7.98540605	      1.44545505	    -27.62476969	    -36.39926501	     13.44563681	     93.63016317	     44.95086853	      0.00000000	      0.00000000	    -26.79690727	    -39.09049669	      6.34261178	     76.72710777	     44.95086853	      0.00000000	      0.00000000
      3.62500000	    -19.32368897	      5.20385575	     -1.86585857	     -0.29702598	      0.80516588	     -0.91342876	     58.36969035	    -21.13119263	     -5.98683471	     68.87763103	      1.20214144	     23.61496007	      0.00000000	      0.00000000	     52.70629186	    -17.42414815	    -13.41291205	     64.99177710	      1.13432050	     21.92007626	      0.00000000	      0.00000000	    -21.07733603	     -7.79275937	      1.39283405	    -28.52505304	    -35.90365432	     13.30641229	     93.25382367	     44.95359001	      0.00000000	      0.00000000	    -28.06203642	    -38.98377417	      6.16072573	     76.69200007	     44.95359001	      0.00000000	      0.00000000
      3.63000000	    -18.42613358	      5.39678896	     -1.84868993	     -0.29200708	      0.81711189	     -0.91323840	     55.98648081	    -21.38252459	     -6.62564350	     66.77765571	      1.16548996	     22.06610349	      0.00000000	      0.00000000	     50.18869995	    -16.89514873	    -13.85156979	     62.70981378	      1.09449272	     19.98292185	      0.00000000	      0.00000000	    -20.18272766	     -8.00592493	      1.39412456	    -28.66654727	    -35.83739822	     13.27715398	     93.21769273	     44.95396859	      0.00000000	      0.00000000	    -28.28560429	    -38.97393915	      6.12910119	     76.68701439	     44.95396859	      0.00000000	      0.00000000
      3.63500000	    -17.26756991	      5.13029846	     -1.74589620	     -0.28649159	      0.83013082	     -0.91320326	     52.85916052	    -21.40736930	     -7.96567846	     64.21942399	      1.12084039	     20.52830433	      0.00000000	      0.00000000	     47.47355925	    -16.66137275	    -14.39666749	     60.07345383	      1.04847956	     18.31862879	      0.00000000	      0.00000000	    -20.49516006	     -7.68620463	      1.35526509	    -29.03557608	    -35.66858099	     13.19133311	     93.11397541	     44.95510594	      0.00000000	      0.00000000	    -28.87305910	    -39.07214682	      6.02314951	     76.67188580	     44.95510594	      0.00000000	      0.00000000
      3.64000000	    -16.27508264	      5.01647683	     -1.55871332	     -0.28127375	      0.84291333	     -0.91330241	     49.97482878	    -21.50298300	     -9.06146936	     61.64675145	      1.07593879	     18.76429028	      0.00000000	      0.00000000	     44.93553307	    -16.20186433	    -14.41425599	     57.61162854	      1.00551261	     15.94528702	      0.00000000	      0.00000000	    -20.24971469	     -7.73514179	      0.18658657	    -32.12749826	    -34.27059853	     10.75784341	     92.52108739	     44.97039221	      0.00000000	      0.00000000	    -35.64769108	    -39.51820201	      4.41654380	     76.44677521	     44.97039221	      0.00000000	      0.00000000
